/* XPM */
static char * digit_1_xpm[] = {
"30 40 2 1",
" 	c None",
".	c #FFFFFF",
"                              ",
"                              ",
"                              ",
"                              ",
"                              ",
"                              ",
"                              ",
"                              ",
"               ....           ",
"              ......          ",
"            ........          ",
"           .........          ",
"          ..........          ",
"         ...........          ",
"        ............          ",
"         ..........           ",
"          ..........          ",
"          ..........          ",
"          ..........          ",
"          ..........          ",
"          ..........          ",
"          ..........          ",
"          ..........          ",
"          ..........          ",
"          ..........          ",
"          ..........          ",
"          ..........          ",
"          ..........          ",
"          ..........          ",
"          ..........          ",
"          ..........          ",
"          ..........          ",
"   .........................  ",
"  .........................   ",
"  .........................   ",
"  .........................   ",
"                              ",
"                              ",
"                              ",
"                              ",
"                              "};
