/* XPM */
static char * digit_5_xpm[] = {
"30 40 2 1",
" 	c None",
".	c #FFFFFF",
"                              ",
"                              ",
"                              ",
"                              ",
"                              ",
"  ......................      ",
"  ......................      ",
"  ......................      ",
"  ..........                  ",
"  ..........                  ",
"  ..........                  ",
"  ..........                  ",
"  ..........                  ",
"  ..........                  ",
"  ..........                  ",
"  ..................          ",
"  ....................        ",
"  ......................      ",
"  .......................     ",
"  .......................     ",
"                     ......   ",
"                      ......  ",
"  ..........           ...... ",
"  ...........           ......",
"  ...............      ...... ",
"  ...............      ...... ",
"  ...............      ...... ",
"  ...............     ......  ",
"   ...............   ......   ",
"   ......................     ",
"    .....................     ",
"     ...................      ",
"       ...............        ",
"                              ",
"                              ",
"                              ",
"                              ",
"                              ",
"                              ",
"                              "
};
