/* XPM */
static char * a_xpm[] = {
"30 40 2 1",
" 	c None",
".	c #FFFFFF",
"                              ",
"                              ",
"                              ",
"                              ",
"         ............         ",
"         ............         ",
"         ............         ",
"        ..............        ",
"     ........    ........     ",
"     ........    ........     ",
"     ........    ........     ",
"    ........      ........    ",
" ........            ........ ",
" ........            ........ ",
" ........            ........ ",
" ........            ........ ",
" ........            ........ ",
" ........            ........ ",
" ........            ........ ",
" .........          ......... ",
" ............................ ",
" ............................ ",
" ............................ ",
" ............................ ",
" ........            ........ ",
" ........            ........ ",
" ........            ........ ",
" ........            ........ ",
" ........            ........ ",
" ........            ........ ",
" ........            ........ ",
" ........            ........ ",
" ........            ........ ",
" ........            ........ ",
" ........            ........ ",
"  ......              ......  ",
"                              ",
"                              ",
"                              ",
"                              "};
