/* XPM */
static char * n_xpm[] = {
"30 40 2 1",
" 	c None",
".	c #FFFFFF",
"                              ",
"                              ",
"                              ",
"                              ",
"                              ",
" ....               ........  ",
" ....               ........  ",
" ....               ........  ",
" ........           ........  ",
" ........           ........  ",
" ........           ........  ",
" ........           ........  ",
" ............       ........  ",
" ............       ........  ",
" ............       ........  ",
" ............       ........  ",
" ...............    ........  ",
" ...............    ........  ",
" ...............    ........  ",
" ...............    ........  ",
" ........    ...............  ",
" ........    ...............  ",
" ........    ...............  ",
" ........    ...............  ",
" ........       ............  ",
" ........       ............  ",
" ........       ............  ",
" ........       ............  ",
" ........           ........  ",
" ........           ........  ",
" ........           ........  ",
" ........           ........  ",
" ........               ....  ",
" ........               ....  ",
" ........               ....  ",
"                              ",
"                              ",
"                              ",
"                              ",
"                              "};
