/* XPM */
static char * r_xpm[] = {
"30 40 2 1",
" 	c None",
".	c #FFFFFF",
"                              ",
"                              ",
"                              ",
"                              ",
"                              ",
" .......................      ",
" .......................      ",
" .......................      ",
" ...........................  ",
" ........           ........  ",
" ........           ........  ",
" ........           ........  ",
" ........           ........  ",
" ........           ........  ",
" ........           ........  ",
" ........           ........  ",
" .......................      ",
" .......................      ",
" .......................      ",
" .......................      ",
" ........           ........  ",
" ........           ........  ",
" ........           ........  ",
" ........           ........  ",
" ........           ........  ",
" ........           ........  ",
" ........           ........  ",
" ........           ........  ",
" ........           ........  ",
" ........           ........  ",
" ........           ........  ",
" ........           ........  ",
" ........           ........  ",
" ........           ........  ",
" ........           ........  ",
"                              ",
"                              ",
"                              ",
"                              ",
"                              "};
