/* XPM */
static char * mouse_xpm[] = {
"30 40 137 2",
"  	c None",
". 	c #000000",
"+ 	c #636363",
"@ 	c #616161",
"# 	c #545454",
"$ 	c #BCBCBC",
"% 	c #F7F7F7",
"& 	c #A4A4A4",
"* 	c #040404",
"= 	c #898989",
"- 	c #F5F5F5",
"; 	c #FEFEFE",
"> 	c #E2E2E2",
", 	c #4C4C4C",
"' 	c #2B2B2B",
") 	c #CDCDCD",
"! 	c #FCFCFC",
"~ 	c #ACACAC",
"{ 	c #4B4B4B",
"] 	c #F8F8F8",
"^ 	c #FAFAFA",
"/ 	c #4D4D4D",
"( 	c #010101",
"_ 	c #0D0D0D",
": 	c #555555",
"< 	c #393939",
"[ 	c #0A0A0A",
"} 	c #7F7F7F",
"| 	c #626262",
"1 	c #B3B3B3",
"2 	c #C6C6C6",
"3 	c #2A2A2A",
"4 	c #363636",
"5 	c #B5B5B5",
"6 	c #161616",
"7 	c #757575",
"8 	c #CFCFCF",
"9 	c #F0F0F0",
"0 	c #8E8E8E",
"a 	c #4A4A4A",
"b 	c #D2D2D2",
"c 	c #939393",
"d 	c #8C8C8C",
"e 	c #E5E5E5",
"f 	c #F1F1F1",
"g 	c #818181",
"h 	c #101010",
"i 	c #F3F3F3",
"j 	c #838383",
"k 	c #949494",
"l 	c #D8D8D8",
"m 	c #1D1D1D",
"n 	c #C3C3C3",
"o 	c #DBDBDB",
"p 	c #525252",
"q 	c #B2B2B2",
"r 	c #232323",
"s 	c #D5D5D5",
"t 	c #343434",
"u 	c #909090",
"v 	c #7C7C7C",
"w 	c #EFEFEF",
"x 	c #979797",
"y 	c #575757",
"z 	c #EAEAEA",
"A 	c #F4F4F4",
"B 	c #8F8F8F",
"C 	c #6E6E6E",
"D 	c #ECECEC",
"E 	c #5A5A5A",
"F 	c #C4C4C4",
"G 	c #E8E8E8",
"H 	c #424242",
"I 	c #DFDFDF",
"J 	c #D0D0D0",
"K 	c #D6D6D6",
"L 	c #080808",
"M 	c #FDFDFD",
"N 	c #C0C0C0",
"O 	c #BABABA",
"P 	c #D9D9D9",
"Q 	c #9D9D9D",
"R 	c #AEAEAE",
"S 	c #6D6D6D",
"T 	c #888888",
"U 	c #E1E1E1",
"V 	c #585858",
"W 	c #CACACA",
"X 	c #C1C1C1",
"Y 	c #2E2E2E",
"Z 	c #3B3B3B",
"` 	c #868686",
" .	c #C9C9C9",
"..	c #121212",
"+.	c #181818",
"@.	c #CBCBCB",
"#.	c #E0E0E0",
"$.	c #404040",
"%.	c #B7B7B7",
"&.	c #282828",
"*.	c #F2F2F2",
"=.	c #929292",
"-.	c #151515",
";.	c #7B7B7B",
">.	c #414141",
",.	c #AFAFAF",
"'.	c #212121",
").	c #646464",
"!.	c #989898",
"~.	c #E7E7E7",
"{.	c #B1B1B1",
"].	c #515151",
"^.	c #191919",
"/.	c #828282",
"(.	c #DDDDDD",
"_.	c #CECECE",
":.	c #B6B6B6",
"<.	c #ABABAB",
"[.	c #666666",
"}.	c #141414",
"|.	c #A6A6A6",
"1.	c #252525",
"2.	c #DCDCDC",
"3.	c #C8C8C8",
"4.	c #2C2C2C",
"5.	c #E4E4E4",
"6.	c #777777",
"7.	c #F6F6F6",
"8.	c #858585",
"9.	c #E3E3E3",
"0.	c #7E7E7E",
"a.	c #EEEEEE",
"b.	c #FBFBFB",
"c.	c #AAAAAA",
"d.	c #5F5F5F",
"e.	c #0B0B0B",
"f.	c #0C0C0C",
"                                                            ",
"                                                            ",
"                                                            ",
"                                                            ",
"                                                            ",
"                                                            ",
"                                                            ",
"                                                            ",
"                                                            ",
"                                                            ",
"  . . + @                                                   ",
"  # $ % & *                                                 ",
"  = - ; > , .                                               ",
"  ' ) ; ! ~ .               .     .                         ",
"  . { ] ; ^ /       (     . _ : < [ } | (                   ",
"    . 1 ! ; 2 3 . 4 = 5 6 7 8 9 0 a 9 b c d _               ",
"    . @ e ; f g h ) i ^ j k ; ; l m n ^ % o p .             ",
"      * q ! ; 2 r s ; ; s t > ; ; u v w ; ! x .             ",
"        y z ; - 7 = A ; A B C - ; D E F ; ; G H .           ",
"        . x ; ; I H J ; ; K L n ; M N F ; ; ; O .           ",
"        . . P ; ; Q g ^ ; M R z ; ; ; ; ; ; ; A S           ",
"          . T A ; U V W ; ; ; ; ; ; ; ; ; ; ; ! X Y         ",
"            Z J ; ^ n > ; ; ; ; ; ; ; ; ; ; ; ; 9 S .       ",
"            . ` ] ; ; ; ; ; ; ; ; ; ; ; ; ; ; ; ;  ...      ",
"              +.@.; ; ; ; ; ; ; ; ; ; ; ; ; ; ; M #.$.      ",
"    . . t %.&.. a *.; ; ; ; ; ; ; ; ; ; ; ; ; ; ^ =.-.      ",
"  . . ;.> M n X >.,.! ; ; ; ; ; ; ; ; ; ; ; ; ; ; K '..     ",
"    . q M ; ; M ~ ).e ; ; ; ; ; ; ; ; ; ; ; ; ; ; ! !..     ",
"    . ).~.- ; ; ] + {.M ; ; ; ; ; ; ; ; ; ; ; ; ; ; G ].    ",
"      ^./.Z (.F A _.:.M ; ; ; ; ; ; ; ; ; ; ; ; ; % <.p     ",
"            [.}.|.! ! ; ; ; ; ; ; ; ; ; ; ; ; ; ; 9 y .     ",
"              . 1.l 2.M ; ; ; ; ; ; ; ; ; ; ; ; ; ; 3.(     ",
"                .   4.5.; ; ; ; ; ; ; ; ; ; ; ; ; ; G )..   ",
"                    . 6.b I ; ; ; ; ; ; ; ; ; ; 7. .8.3 .   ",
"                          ;.; ; ; ; ; ; ; ; ; 9.0.' .       ",
"                          . F W a.; ; ; b.5.& [ .           ",
"                              '.O ; ; G c.d.e.              ",
"                                H A O a f..                 ",
"                                . $.. .                     ",
"                                  .                         "};
