/* XPM */
static char * C:\Users\NASA\Downloads\mouse_xpm[] = {
"40 60 153 2",
"  	c None",
". 	c #000000",
"+ 	c #6F6F6F",
"@ 	c #8E8E8E",
"# 	c #565656",
"$ 	c #C9C9C9",
"% 	c #FDFDFD",
"& 	c #ECECEC",
"* 	c #1C1C1C",
"= 	c #D2D2D2",
"- 	c #FEFEFE",
"; 	c #ACACAC",
"> 	c #686868",
", 	c #FCFCFC",
"' 	c #F4F4F4",
") 	c #404040",
"! 	c #C6C6C6",
"~ 	c #BCBCBC",
"{ 	c #515151",
"] 	c #F7F7F7",
"^ 	c #F9F9F9",
"/ 	c #575757",
"( 	c #444444",
"_ 	c #666666",
": 	c #3F3F3F",
"< 	c #B3B3B3",
"[ 	c #040404",
"} 	c #B7B7B7",
"| 	c #CACACA",
"1 	c #2F2F2F",
"2 	c #868686",
"3 	c #252525",
"4 	c #ADADAD",
"5 	c #CFCFCF",
"6 	c #414141",
"7 	c #F3F3F3",
"8 	c #9C9C9C",
"9 	c #070707",
"0 	c #7A7A7A",
"a 	c #373737",
"b 	c #F2F2F2",
"c 	c #0A0A0A",
"d 	c #A1A1A1",
"e 	c #F0F0F0",
"f 	c #F1F1F1",
"g 	c #343434",
"h 	c #DDDDDD",
"i 	c #767676",
"j 	c #EFEFEF",
"k 	c #E5E5E5",
"l 	c #A6A6A6",
"m 	c #D9D9D9",
"n 	c #161616",
"o 	c #E3E3E3",
"p 	c #B5B5B5",
"q 	c #DCDCDC",
"r 	c #606060",
"s 	c #FBFBFB",
"t 	c #121212",
"u 	c #EAEAEA",
"v 	c #878787",
"w 	c #4D4D4D",
"x 	c #0C0C0C",
"y 	c #8D8D8D",
"z 	c #C1C1C1",
"A 	c #595959",
"B 	c #919191",
"C 	c #E4E4E4",
"D 	c #050505",
"E 	c #505050",
"F 	c #F8F8F8",
"G 	c #C5C5C5",
"H 	c #888888",
"I 	c #E7E7E7",
"J 	c #0B0B0B",
"K 	c #494949",
"L 	c #F6F6F6",
"M 	c #CBCBCB",
"N 	c #DFDFDF",
"O 	c #646464",
"P 	c #A2A2A2",
"Q 	c #7C7C7C",
"R 	c #EEEEEE",
"S 	c #292929",
"T 	c #D4D4D4",
"U 	c #707070",
"V 	c #8C8C8C",
"W 	c #DADADA",
"X 	c #D1D1D1",
"Y 	c #AFAFAF",
"Z 	c #A5A5A5",
"` 	c #A4A4A4",
" .	c #DBDBDB",
"..	c #636363",
"+.	c #F5F5F5",
"@.	c #181818",
"#.	c #C4C4C4",
"$.	c #BFBFBF",
"%.	c #9A9A9A",
"&.	c #4A4A4A",
"*.	c #FAFAFA",
"=.	c #B6B6B6",
"-.	c #272727",
";.	c #B4B4B4",
">.	c #464646",
",.	c #B0B0B0",
"'.	c #383838",
").	c #4E4E4E",
"!.	c #C0C0C0",
"~.	c #303030",
"{.	c #0E0E0E",
"].	c #E8E8E8",
"^.	c #484848",
"/.	c #313131",
"(.	c #B8B8B8",
"_.	c #AEAEAE",
":.	c #626262",
"<.	c #010101",
"[.	c #5F5F5F",
"}.	c #535353",
"|.	c #D0D0D0",
"1.	c #B9B9B9",
"2.	c #797979",
"3.	c #3D3D3D",
"4.	c #A3A3A3",
"5.	c #242424",
"6.	c #DEDEDE",
"7.	c #353535",
"8.	c #C3C3C3",
"9.	c #C8C8C8",
"0.	c #5B5B5B",
"a.	c #808080",
"b.	c #363636",
"c.	c #D7D7D7",
"d.	c #7E7E7E",
"e.	c #CCCCCC",
"f.	c #E1E1E1",
"g.	c #E0E0E0",
"h.	c #030303",
"i.	c #949494",
"j.	c #5C5C5C",
"k.	c #E6E6E6",
"l.	c #777777",
"m.	c #898989",
"n.	c #E9E9E9",
"o.	c #8F8F8F",
"p.	c #0F0F0F",
"q.	c #101010",
"r.	c #5A5A5A",
"s.	c #BDBDBD",
"t.	c #434343",
"u.	c #D6D6D6",
"v.	c #6A6A6A",
"                                                                                ",
"                                                                                ",
"                                                                                ",
"                                                                                ",
"                                                                                ",
"                                                                                ",
"                                                                                ",
"                                                                                ",
"                                                                                ",
"                                                                                ",
"                                                                                ",
"                                                                                ",
"                                                                                ",
"      . .                                                                       ",
"  . . . + @ .                                                                   ",
"    # $ % & * .                                                                 ",
"  . = - - - ; . .                                                               ",
"  . > , - - ' ) .                                                               ",
"  . . ! - - - ~ . .                   . .     . .                               ",
"    . { ] - - ^ / .       . .     . . . ( _ . . : < [ .                         ",
"    . . } - - - | . . . . . 1 2 . . 3 4 ' 5 . 6 7 - 8 9 0 . .                   ",
"      . a b - - % + . . c d e f g . h - - % i . 5 - j k ' : .                   ",
"      . . l - - - m . n o - - - p . 8 - - - q . r s - - - ~ . .                 ",
"        . t u - - - v . ! - - - ] w x k - - - y . z - - - ^ A .                 ",
"          . B - - - C D E F - - - G . H - - - I J K L - - - M . .               ",
"          . . N - - - 8 . } - - - s O . m - - - P . < - - - % + .               ",
"            . Q - - - R S g b - - - T . U % - - e V o - - - - W . .             ",
"            . . X - - - Y . Z - - - % `  .- - - - - - - - - - - v .             ",
"              . ..s - - +.( @.u - - - - - - - - - - - - - - - - k x .           ",
"              . . #.- - - $.. %.- - - - - - - - - - - - - - - - - 8 .           ",
"                . &.] - - *.=.' - - - - - - - - - - - - - - - - - R -..         ",
"                . . ;.- - - - - - - - - - - - - - - - - - - - - - - Y . .       ",
"                  . 1 e - - - - - - - - - - - - - - - - - - - - - - +.>.        ",
"          . .     . . P - - - - - - - - - - - - - - - - - - - - - ] ,.'.        ",
"      . . . ).!.~.. . {.].- - - - - - - - - - - - - - - - - - - - L ^..         ",
"    . . /.p ] - (._.} . y - - - - - - - - - - - - - - - - - - - - - z . .       ",
"    . . !.- - - - - s :.<.q - - - - - - - - - - - - - - - - - - - - *.[..       ",
"      . }.F - - - - - |.. i % - - - - - - - - - - - - - - - - - - - - |.. .     ",
"      . . 1.- b - - - - 2.. |.- - - - - - - - - - - - - - - - - - - - % 0 .     ",
"        . 3.4.5.& b !.- 6.7.8.- - - - - - - - - - - - - - - - - - - , 9.0.      ",
"              . a.b.. m - +.- - - - - - - - - - - - - - - - - - - - c.. .       ",
"                  . . U % - - - - - - - - - - - - - - - - - - - - - - d.. .     ",
"                    . . e.f.|.- - - - - - - - - - - - - - - - - - - - g.h..     ",
"                    . .   D ) ' - - - - - - - - - - - - - - - - - - - - i.. .   ",
"                          . . 4 - s - - - - - - - - - - - - - - - - % 5 j.. .   ",
"                            . 3 z { k.- - - - - - - - - - - - - - h l.. . .     ",
"                                  . m.- - - - - - - - - - - - n.o.<.. .         ",
"                                  . . W n.h - - - - - - - b l p.. .             ",
"                                    . > q.r.^ - - - - F (.7.. . .               ",
"                                        . . s.- - , 9.{ . . .                   ",
"                                          . t.+.u.v.. . .                       ",
"                                          . . ).. . .                           ",
"                                            . . .                               ",
"                                              .                                 ",
"                                                                                ",
"                                                                                ",
"                                                                                ",
"                                                                                ",
"                                                                                ",
"                                                                                "};
